<svg xmlns="http://www.w3.org/2000/svg" viewBox="0 0 1280 720" font-family="'Rubik Mono One','JetBrains Mono',monospace">
  <defs>
    <linearGradient id="bg" x1="0" y1="0" x2="0" y2="1">
      <stop offset="0" stop-color="#15172a"/>
      <stop offset="1" stop-color="#04050a"/>
    </linearGradient>
  </defs>
  <rect width="1280" height="720" fill="url(#bg)"/>

  <!-- top bar -->
  <rect x="0" y="0" width="1280" height="60" fill="#0c0d18"/>
  <text x="40" y="42" font-size="32" fill="#b3ff2c">tv·</text>
  <text x="92" y="42" font-size="32" fill="#f1efe3">tail</text>
  <circle cx="180" cy="34" r="6" fill="#b3ff2c"/>

  <!-- sidebar -->
  <rect x="0" y="60" width="280" height="600" fill="rgba(255,255,255,0.05)"/>
  <text x="20" y="92" font-size="14" fill="#b3ff2c" letter-spacing="3">APPS</text>
  <rect x="14" y="106" width="252" height="58" rx="8" fill="#172033" stroke="#b3ff2c"/>
  <circle cx="30" cy="124" r="6" fill="#ff2c4d"/>
  <text x="44" y="128" font-size="15" fill="#f1efe3">disem-bowling</text>
  <text x="44" y="148" font-size="11" fill="#9b9a8c">e 3 · w 7 · 412 lines</text>
  <rect x="14" y="172" width="252" height="58" rx="8" fill="rgba(255,255,255,0.04)"/>
  <circle cx="30" cy="190" r="6" fill="#45ffae"/>
  <text x="44" y="194" font-size="15" fill="#f1efe3">frog-bowling</text>
  <text x="44" y="214" font-size="11" fill="#9b9a8c">38 lines</text>
  <rect x="14" y="238" width="252" height="58" rx="8" fill="rgba(255,255,255,0.04)"/>
  <circle cx="30" cy="256" r="6" fill="#5d3bff"/>
  <text x="44" y="260" font-size="15" fill="#f1efe3">disco</text>
  <text x="44" y="280" font-size="11" fill="#9b9a8c">w 1 · 91 lines</text>

  <!-- filters bar -->
  <rect x="280" y="60" width="1000" height="50" fill="#11131c"/>
  <text x="300" y="92" font-size="11" fill="#9b9a8c" letter-spacing="3">LEVEL</text>
  <text x="358" y="92" font-size="13" fill="#9b9a8c">debug</text>
  <text x="406" y="92" font-size="13" fill="#f1efe3">log</text>
  <text x="436" y="92" font-size="13" fill="#6dcaff">info</text>
  <text x="478" y="92" font-size="13" fill="#ffb02e">warn</text>
  <text x="524" y="92" font-size="13" fill="#ff2c4d">error</text>

  <!-- feed lines -->
  <g font-family="'JetBrains Mono',monospace" font-size="14">
    <text x="300" y="150" fill="#565548">17:42:11.302</text><text x="420" y="150" fill="#9b9a8c">LOG  </text>
    <text x="468" y="150" fill="#ff2c4d">disem-bowling</text>
    <text x="600" y="150" fill="#f1efe3">[boot] log-tap online</text>

    <text x="300" y="180" fill="#565548">17:42:11.482</text><text x="420" y="180" fill="#6dcaff">INFO </text>
    <text x="468" y="180" fill="#ff2c4d">disem-bowling</text>
    <text x="600" y="180" fill="#f1efe3">boot complete · room=3F7Q</text>

    <text x="300" y="210" fill="#565548">17:42:13.871</text><text x="420" y="210" fill="#ffb02e">WARN </text>
    <text x="468" y="210" fill="#ff2c4d">disem-bowling</text>
    <text x="600" y="210" fill="#ffe2b2">[hub] reconnecting in 2s</text>

    <text x="300" y="240" fill="#565548">17:42:14.012</text><text x="420" y="240" fill="#6dcaff">INFO </text>
    <text x="468" y="240" fill="#45ffae">frog-bowling</text>
    <text x="600" y="240" fill="#f1efe3">reset roll · best 7</text>

    <text x="300" y="270" fill="#565548">17:42:14.205</text><text x="420" y="270" fill="#ff2c4d">ERROR</text>
    <text x="468" y="270" fill="#ff2c4d">disem-bowling</text>
    <text x="600" y="270" fill="#ffb6bd">[unhandledrejection] TypeError: cannot read 'foo'</text>

    <text x="300" y="300" fill="#565548">17:42:14.380</text><text x="420" y="300" fill="#9b9a8c">LOG  </text>
    <text x="468" y="300" fill="#5d3bff">disco</text>
    <text x="600" y="300" fill="#f1efe3">tile a3 · slot 02 · stable</text>

    <text x="300" y="330" fill="#565548">17:42:15.001</text><text x="420" y="330" fill="#6dcaff">INFO </text>
    <text x="468" y="330" fill="#ff2c4d">disem-bowling</text>
    <text x="600" y="330" fill="#f1efe3">[heartbeat] {online:true,visible:true}</text>
  </g>

  <!-- big title -->
  <text x="40" y="640" font-size="56" fill="#b3ff2c">tv·tail</text>
  <text x="40" y="690" font-size="20" fill="#9b9a8c" font-family="'JetBrains Mono',monospace" letter-spacing="2">DROP-IN BROWSER LOG STREAMING · ONE CHANNEL · ANY APP</text>
</svg>
